<?xml version="1.0" encoding="UTF-8" standalone="no"?>
<!-- Created with Inkscape (http://www.inkscape.org/) -->

<svg
   width="566.92914"
   height="566.92914"
   viewBox="0 0 150 150"
   version="1.1"
   id="svg1"
   xml:space="preserve"
   sodipodi:docname="Characters.svg"
   inkscape:version="1.4 (86a8ad7, 2024-10-11)"
   inkscape:export-batch-path="Chibi Hime\SVG\Spritesheet"
   inkscape:export-batch-name=""
   xmlns:inkscape="http://www.inkscape.org/namespaces/inkscape"
   xmlns:sodipodi="http://sodipodi.sourceforge.net/DTD/sodipodi-0.dtd"
   xmlns="http://www.w3.org/2000/svg"
   xmlns:svg="http://www.w3.org/2000/svg"><sodipodi:namedview
     id="namedview1"
     pagecolor="#505050"
     bordercolor="#ffffff"
     borderopacity="1"
     inkscape:showpageshadow="0"
     inkscape:pageopacity="0"
     inkscape:pagecheckerboard="1"
     inkscape:deskcolor="#505050"
     inkscape:document-units="mm"
     showgrid="false"
     inkscape:zoom="1.026783"
     inkscape:cx="1215.9337"
     inkscape:cy="858.50664"
     inkscape:window-width="1920"
     inkscape:window-height="1017"
     inkscape:window-x="1912"
     inkscape:window-y="-8"
     inkscape:window-maximized="1"
     inkscape:current-layer="g100"
     inkscape:export-bgcolor="#ffffff00" /><defs
     id="defs1"><inkscape:path-effect
       effect="mirror_symmetry"
       start_point="-348.7396,-250.26421"
       end_point="-348.7396,-246.26421"
       center_point="-348.7396,-248.26421"
       id="path-effect103"
       is_visible="true"
       lpeversion="1.2"
       lpesatellites=""
       mode="free"
       discard_orig_path="false"
       fuse_paths="false"
       oposite_fuse="false"
       split_items="false"
       split_open="false"
       link_styles="false" /><inkscape:path-effect
       effect="mirror_symmetry"
       start_point="-346.32441,-213.48942"
       end_point="-346.32441,-233.82914"
       center_point="-346.32441,-223.65928"
       id="path-effect101"
       is_visible="true"
       lpeversion="1.2"
       lpesatellites=""
       mode="free"
       discard_orig_path="false"
       fuse_paths="true"
       oposite_fuse="false"
       split_items="false"
       split_open="false"
       link_styles="false" /></defs><g
     inkscape:groupmode="layer"
     id="g100"
     inkscape:label="base_Chibi_Hime_Spritesheet"
     transform="translate(335.25992,298.18419)"
     style="display:inline"
     inkscape:export-filename="Hime.png"
     inkscape:export-xdpi="96"
     inkscape:export-ydpi="96"><path
       id="path88"
       style="display:inline;fill:#ffffff;fill-opacity:1;stroke:#000000;stroke-width:1.01857;stroke-linecap:round;stroke-linejoin:miter;stroke-dasharray:none;stroke-dashoffset:0;stroke-opacity:1;paint-order:normal"
       d="m -247.94534,-189.81495 c 2.71077,7.35776 -3.48051,11.01327 -0.0639,18.24348 3.27516,5.67304 13.18189,5.48899 19.16508,5.67239 5.18772,0.0305 13.59774,-1.65325 17.36745,-5.43235 3.08188,-5.48593 1.31364,-10.53469 0.10659,-16.49979 1.03745,-4.51443 2.57514,-10.03413 0.55821,-14.42202 -2.90307,-7.30292 -13.11215,-12.79167 -18.83788,-9.898 -5.39076,-1.04177 -11.57819,1.08044 -15.47984,4.9708 -4.17648,4.1377 -5.08917,11.19456 -2.81567,17.36549 z"
       sodipodi:nodetypes="scccccccss"
       inkscape:label="hair_Hime_Back" /><path
       style="display:inline;fill:#ffffff;stroke:#000000;stroke-width:0.999996;stroke-dasharray:none;stroke-opacity:1"
       d="m -278.62141,-202.57903 c -0.27003,1.50955 0.41215,4.7987 1.1997,7.82667 0.8638,3.32115 1.85438,6.32811 1.85438,6.32811 0,0 -3.43194,1.5816 -2.84772,2.96794 1.0358,2.45792 6.30139,1.10753 7.38756,0.0457 0.0623,-0.0609 0.92098,-4.8053 1.62521,-9.22426 0.57417,-3.60287 1.04571,-6.98942 0.89936,-7.44503 -0.48507,-1.51024 -9.79794,-2.29117 -10.11849,-0.49914 z"
       id="path89"
       sodipodi:nodetypes="sscsssss"
       inkscape:label="base_Leg_R" /><path
       id="path90"
       d="m -296.64437,-202.57903 c 0.27002,1.50955 -0.41215,4.7987 -1.1997,7.82667 -0.8638,3.32115 -1.85439,6.32811 -1.85439,6.32811 0,0 3.43195,1.5816 2.84772,2.96794 -1.03579,2.45792 -6.30138,1.10753 -7.38756,0.0457 -0.0623,-0.0609 -0.92097,-4.8053 -1.6252,-9.22426 -0.57417,-3.60287 -1.04571,-6.98942 -0.89937,-7.44503 0.48508,-1.51024 9.79795,-2.29117 10.1185,-0.49914 z"
       style="display:inline;fill:#ffffff;stroke:#000000;stroke-width:0.999996;stroke-dasharray:none;stroke-opacity:1"
       inkscape:label="base_Leg_L" /><path
       style="fill:#ffffff;fill-opacity:1;stroke:#000000;stroke-width:1;stroke-dasharray:none;stroke-opacity:1"
       d="m -211.91831,-225.76384 -6.40556,6.41662 c 0,0 0.42771,1.77466 -0.2531,2.83718 -1.28837,2.01075 -6.21081,0.78372 -7.87918,-0.92495 -1.2662,-1.2968 1.78625,-3.76463 1.78625,-3.76463 0,0 -2.33319,-1.42599 -1.8442,-2.27856 0.44744,-0.78012 4.72827,-0.24205 4.72827,-0.24205 l 6.06324,-5.58103 c 0,0 6.49195,-6.38183 8.35776,-4.66272 1.95513,1.80142 -4.55348,8.20014 -4.55348,8.20014 z"
       id="path91"
       sodipodi:nodetypes="ccsscsccsc"
       inkscape:label="base_Arm_R" /><path
       id="path92"
       d="m -249.03984,-225.50616 6.40556,6.41662 c 0,0 -0.42771,1.77466 0.2531,2.83718 1.28837,2.01075 6.21081,0.78372 7.87918,-0.92495 1.2662,-1.2968 -1.78625,-3.76463 -1.78625,-3.76463 0,0 2.33319,-1.42599 1.8442,-2.27856 -0.44744,-0.78012 -4.72827,-0.24205 -4.72827,-0.24205 l -6.06324,-5.58103 c 0,0 -6.49195,-6.38183 -8.35776,-4.66272 -1.95513,1.80142 4.55348,8.20014 4.55348,8.20014 z"
       style="display:inline;fill:#ffffff;fill-opacity:1;stroke:#000000;stroke-width:1;stroke-dasharray:none;stroke-opacity:1"
       inkscape:label="base_Arm_L" /><path
       style="display:inline;fill:#ffffff;stroke:#000000;stroke-width:1;stroke-linecap:round;stroke-dasharray:none;stroke-opacity:1"
       d="m -335.98207,-213.12281 c 0.23827,-0.82978 0.74565,-1.50706 0.69915,-4.93968 -0.066,-4.87705 -4.636,-12.54708 -6.3388,-15.07517 -0.92237,-1.36941 -2.80886,-1.72314 -4.70269,-1.66759 -1.89383,-0.0556 -3.78032,0.29818 -4.70269,1.66759 -1.7028,2.52809 -6.27277,10.19812 -6.3388,15.07517 -0.0465,3.43262 0.46088,4.1099 0.69915,4.93968"
       id="path93"
       sodipodi:nodetypes="ccssc"
       inkscape:label="Base_Body"
       transform="translate(75.436361,0.45094324)"
       inkscape:original-d="m -335.50177,-213.48942 -5.45002,-20.33972 c 0,0 -7.84818,-2.61507 -10.07531,0.69148 -1.7028,2.52809 -6.27277,10.19812 -6.3388,15.07517 -0.0465,3.43262 0.46088,4.1099 0.69915,4.93968"
       inkscape:path-effect="#path-effect101" /><rect
       style="display:inline;fill:#ffffff;stroke:#000000;stroke-width:1;stroke-dasharray:none;stroke-opacity:1"
       id="rect93"
       width="6.1843643"
       height="7.3439331"
       x="-305.353"
       y="-226.50235"
       rx="1.9"
       ry="1.4"
       inkscape:label="base_Neck" /><rect
       style="fill:#ffffff;stroke:#000000;stroke-width:1;stroke-dasharray:none;stroke-opacity:1"
       id="rect94"
       width="29.633415"
       height="26.28355"
       x="-232.81557"
       y="-271.85437"
       rx="9"
       ry="9"
       sodipodi:type="rect"
       inkscape:label="base_Head" /><path
       style="fill:#ffffff;fill-opacity:1;stroke:#000000;stroke-width:1;stroke-dasharray:none;stroke-dashoffset:0;stroke-opacity:1"
       id="path94"
       inkscape:path-effect="#path-effect103"
       sodipodi:type="arc"
       sodipodi:cx="-355.69998"
       sodipodi:cy="-248.39305"
       sodipodi:rx="2"
       sodipodi:ry="2"
       d="m -353.69998,-248.39305 c 0,1.10457 -0.89543,2 -2,2 -1.10457,0 -2,-0.89543 -2,-2 0,-1.10457 0.89543,-2 2,-2 1.10457,0 2,0.89543 2,2 z m 9.92076,0 c 0,1.10457 0.89543,2 2,2 1.10457,0 2,-0.89543 2,-2 0,-1.10457 -0.89543,-2 -2,-2 -1.10457,0 -2,0.89543 -2,2 z"
       transform="translate(97.72584,-9.5342284)"
       inkscape:label="base_Eyes" /><path
       style="display:inline;fill:none;fill-opacity:1;stroke:#000000;stroke-width:1;stroke-linecap:round;stroke-dasharray:none;stroke-dashoffset:0;stroke-opacity:1;paint-order:normal"
       d="m -277.85905,-252.97982 4.43284,1.75052 3.47369,-0.7256"
       id="path95"
       sodipodi:nodetypes="ccc"
       inkscape:label="base_Mouth" /><g
       id="g99"
       style="display:inline;fill:#ffffff;fill-opacity:1"
       inkscape:label="hair_Hime_Front"
       transform="translate(45.867369,-3.6075459)"><path
         style="display:inline;fill:#ffffff;fill-opacity:1;stroke:#000000;stroke-width:1;stroke-linecap:round;stroke-linejoin:miter;stroke-dasharray:none;stroke-dashoffset:0;stroke-opacity:1;paint-order:normal"
         d="m -355.05366,-257.80031 c -2.43194,9.06483 -4.55743,14.78338 -2.60298,24.05077 -7.14649,-6.01843 -6.86534,-12.77563 -6.77536,-21.37288 0.96764,-7.99271 9.178,-13.76927 16.79273,-11.81943 7.17242,-3.28029 17.36899,4.96574 16.7659,13.93682 0.31903,7.00562 0.5651,17.28677 -7.8249,19.61309 2.10437,-6.90667 2.92923,-13.52356 0.23905,-20.85337 -0.28549,-1.24465 -0.60998,-2.47984 -0.88595,-3.72671"
         id="path96"
         sodipodi:nodetypes="cccccccc"
         inkscape:label="hair_Hime_Bangs_LR" /><path
         style="display:inline;fill:#ffffff;fill-opacity:1;stroke:#000000;stroke-width:1;stroke-linecap:round;stroke-linejoin:miter;stroke-dasharray:none;stroke-dashoffset:0;stroke-opacity:1;paint-order:normal"
         d="m -356.79514,-263.17756 c -5.26407,8.04009 -3.53282,17.88877 -1.7417,20.04426 1.15479,0.66588 3.28185,0.0625 4.40803,-0.45595 1.1201,-0.82848 -0.3947,-1.52867 -0.78872,-2.49681 -1.40756,-6.07462 0.49853,-8.81585 3.4047,-13.74156"
         id="path97"
         sodipodi:nodetypes="ccccc"
         inkscape:label="hair_Hime_Bangs_R" /><path
         style="display:inline;fill:#ffffff;fill-opacity:1;stroke:#000000;stroke-width:1;stroke-linecap:round;stroke-linejoin:miter;stroke-dasharray:none;stroke-dashoffset:0;stroke-opacity:1;paint-order:normal"
         d="m -342.55822,-260.85842 c 2.24726,2.48188 4.8435,9.56845 4.95601,12.66929 -0.0918,2.54688 -0.19339,1.66291 -1.06253,4.03479 0.90389,1.7514 2.84193,1.38799 4.37354,0.91907 1.6148,-2.393 2.31392,-14.15357 -4.40138,-20.65097"
         id="path98"
         sodipodi:nodetypes="ccccc"
         inkscape:label="hair_Hime_Bangs_L" /><path
         style="display:inline;fill:#ffffff;fill-opacity:1;stroke:#000000;stroke-width:1;stroke-linecap:round;stroke-linejoin:miter;stroke-dasharray:none;stroke-dashoffset:0;stroke-opacity:1;paint-order:normal"
         d="m -343.46036,-263.37058 c 4.23595,1.57827 5.77906,8.05346 3.23307,9.82556 -1.75288,-1.37546 -3.15554,-5.61838 -3.15554,-5.61838 0,0 -0.99759,3.56719 -2.62356,4.85386 -0.10402,-1.57535 0.15577,-6.07405 0.15577,-6.07405 0,0 0.18505,5.12829 -2.79265,6.41633 0.47156,-1.48744 1.24678,-3.50418 0.33973,-5.24053 -0.0842,1.07989 0.0388,1.68851 -0.5818,2.39763 -0.50359,0.95599 -1.43889,1.16326 -2.38623,1.6215 -0.69186,0.39019 -0.94657,2.43738 -1.88223,1.57066 -1.26227,-3.19675 1.25039,-8.56943 1.96309,-9.36621"
         id="path99"
         sodipodi:nodetypes="ccccccccccc"
         inkscape:label="hair_Hime_Bangs_Front" /></g><rect
       style="display:inline;fill:none;fill-opacity:0.455385;stroke-width:0.546939"
       id="rect88-8"
       width="150"
       height="150"
       x="-335.25992"
       y="148.18419"
       transform="scale(1,-1)"
       inkscape:label="Border_Padding" /></g></svg>
