<?xml version="1.0" encoding="UTF-8" standalone="no"?>
<!-- Created with Inkscape (http://www.inkscape.org/) -->

<svg
   width="171.3983"
   height="285.42889"
   viewBox="0 0 45.349133 75.519728"
   version="1.1"
   id="svg1"
   xml:space="preserve"
   xmlns="http://www.w3.org/2000/svg"
   xmlns:svg="http://www.w3.org/2000/svg"><defs
     id="defs1" /><g
     id="Hime"
     transform="translate(371.55845,271.17502)"
     style="display:inline"><path
       id="path8"
       style="display:inline;fill:#ffffff;fill-opacity:1;stroke:#000000;stroke-width:1.01857;stroke-linecap:round;stroke-linejoin:miter;stroke-dasharray:none;stroke-dashoffset:0;stroke-opacity:1;paint-order:normal"
       d="m -367.50972,-247.53569 c 2.71077,7.35776 -3.48051,11.01327 -0.0639,18.24348 3.27516,5.67304 13.18189,5.48899 19.16508,5.67239 5.18772,0.0305 13.59774,-1.65325 17.36745,-5.43235 3.08188,-5.48593 1.31364,-10.53469 0.10659,-16.49979 1.03745,-4.51443 2.57514,-10.03413 0.55821,-14.42202 -2.90307,-7.30292 -13.11215,-12.79167 -18.83788,-9.898 -5.39076,-1.04177 -11.57819,1.08044 -15.47984,4.9708 -4.17648,4.1377 -5.08917,11.19456 -2.81567,17.36549 z" /><path
       style="fill:#ffffff;stroke:#000000;stroke-width:1.04933;stroke-dasharray:none;stroke-opacity:1"
       d="m -355.12454,-215.27945 c -0.29803,1.50596 0.4549,4.7873 1.32414,7.80808 0.9534,3.31327 2.04673,6.31309 2.04673,6.31309 0,0 -3.78792,1.57784 -3.1431,2.96089 1.14323,2.45208 6.95499,1.1049 8.15383,0.0456 0.0688,-0.0608 1.0165,-4.79389 1.79378,-9.20236 0.63372,-3.59431 1.15417,-6.97282 0.99265,-7.42735 -0.53539,-1.50665 -10.81423,-2.28573 -11.16803,-0.49795 z"
       id="path9"
       transform="matrix(0.9060235,0,0,1.0023804,-37.524653,1.1018251)" /><path
       id="path10"
       d="m -355.12454,-215.27945 c -0.29803,1.50596 0.4549,4.7873 1.32414,7.80808 0.9534,3.31327 2.04673,6.31309 2.04673,6.31309 0,0 -3.78792,1.57784 -3.1431,2.96089 1.14323,2.45208 6.95499,1.1049 8.15383,0.0456 0.0688,-0.0608 1.0165,-4.79389 1.79378,-9.20236 0.63372,-3.59431 1.15417,-6.97282 0.99265,-7.42735 -0.53539,-1.50665 -10.81423,-2.28573 -11.16803,-0.49795 z"
       style="fill:#ffffff;stroke:#000000;stroke-width:1.04933;stroke-dasharray:none;stroke-opacity:1"
       transform="matrix(-0.9060235,0,0,1.0023804,-660.39769,1.1018251)" /><path
       style="fill:#ffffff;fill-opacity:1;stroke:#000000;stroke-width:1;stroke-dasharray:none;stroke-opacity:1"
       d="m -360.00486,-228.24451 -6.41662,6.40556 c 0,0 -1.77466,-0.42771 -2.83718,0.2531 -2.01075,1.28837 -0.78372,6.21081 0.92495,7.87918 1.2968,1.2662 3.76463,-1.78625 3.76463,-1.78625 0,0 1.42599,2.33319 2.27856,1.8442 0.78012,-0.44744 0.24205,-4.72827 0.24205,-4.72827 l 5.58103,-6.06324 c 0,0 6.38183,-6.49195 4.66272,-8.35776 -1.80142,-1.95513 -8.20014,4.55348 -8.20014,4.55348 z"
       id="path11"
       transform="matrix(0,-1,-1,0,-584.46466,-584.73797)" /><path
       transform="rotate(-90,-349.02054,-235.71743)"
       id="path12"
       d="m -360.00486,-228.24451 -6.41662,6.40556 c 0,0 -1.77466,-0.42771 -2.83718,0.2531 -2.01075,1.28837 -0.78372,6.21081 0.92495,7.87918 1.2968,1.2662 3.76463,-1.78625 3.76463,-1.78625 0,0 1.42599,2.33319 2.27856,1.8442 0.78012,-0.44744 0.24205,-4.72827 0.24205,-4.72827 l 5.58103,-6.06324 c 0,0 6.38183,-6.49195 4.66272,-8.35776 -1.80142,-1.95513 -8.20014,4.55348 -8.20014,4.55348 z"
       style="display:inline;fill:#ffffff;fill-opacity:1;stroke:#000000;stroke-width:1;stroke-dasharray:none;stroke-opacity:1" /><path
       style="display:inline;fill:#ffffff;stroke:#000000;stroke-width:1;stroke-linecap:round;stroke-dasharray:none;stroke-opacity:1"
       d="m -335.98207,-213.12281 c 0.23827,-0.82978 0.74565,-1.50706 0.69915,-4.93968 -0.066,-4.87705 -4.636,-12.54708 -6.3388,-15.07517 -0.92237,-1.36941 -2.80886,-1.72314 -4.70269,-1.66759 -1.89383,-0.0556 -3.78032,0.29818 -4.70269,1.66759 -1.7028,2.52809 -6.27277,10.19812 -6.3388,15.07517 -0.0465,3.43262 0.46088,4.1099 0.69915,4.93968"
       id="path13"
       transform="translate(-2.641239,0.19326139)" /><rect
       style="display:inline;fill:#ffffff;stroke:#000000;stroke-width:1;stroke-dasharray:none;stroke-opacity:1"
       id="rect13"
       width="6.1843643"
       height="7.3439331"
       x="-351.99341"
       y="-240.15948"
       rx="1.9"
       ry="1.4" /><rect
       style="fill:#ffffff;stroke:#000000;stroke-width:1;stroke-dasharray:none;stroke-opacity:1"
       id="rect14"
       width="29.633415"
       height="26.28355"
       x="-363.97565"
       y="-263.35086"
       rx="9"
       ry="9" /><path
       style="fill:#ffffff;fill-opacity:1;stroke:#000000;stroke-width:1;stroke-dasharray:none;stroke-dashoffset:0;stroke-opacity:1"
       id="path16"
       d="m -353.69998,-248.39305 c 0,1.10457 -0.89543,2 -2,2 -1.10457,0 -2,-0.89543 -2,-2 0,-1.10457 0.89543,-2 2,-2 1.10457,0 2,0.89543 2,2 z m 9.92076,0 c 0,1.10457 0.89543,2 2,2 1.10457,0 2,-0.89543 2,-2 0,-1.10457 -0.89543,-2 -2,-2 -1.10457,0 -2,0.89543 -2,2 z"
       transform="translate(2.641239,-0.77304559)" /><path
       style="display:inline;fill:none;fill-opacity:1;stroke:#000000;stroke-width:1;stroke-linecap:round;stroke-dasharray:none;stroke-dashoffset:0;stroke-opacity:1;paint-order:normal"
       d="m -350.00997,-242.93023 4.43284,1.75052 3.47369,-0.7256"
       id="path17" /><g
       id="g24"
       style="display:inline;fill:#ffffff;fill-opacity:1"><path
         style="display:inline;fill:#ffffff;fill-opacity:1;stroke:#000000;stroke-width:1;stroke-linecap:round;stroke-linejoin:miter;stroke-dasharray:none;stroke-dashoffset:0;stroke-opacity:1;paint-order:normal"
         d="m -355.05366,-257.80031 c -2.43194,9.06483 -4.55743,14.78338 -2.60298,24.05077 -7.14649,-6.01843 -6.86534,-12.77563 -6.77536,-21.37288 0.96764,-7.99271 9.178,-13.76927 16.79273,-11.81943 7.17242,-3.28029 17.36899,4.96574 16.7659,13.93682 0.31903,7.00562 0.5651,17.28677 -7.8249,19.61309 2.10437,-6.90667 2.92923,-13.52356 0.23905,-20.85337 -0.28549,-1.24465 -0.60998,-2.47984 -0.88595,-3.72671"
         id="path18" /><path
         style="display:inline;fill:#ffffff;fill-opacity:1;stroke:#000000;stroke-width:1;stroke-linecap:round;stroke-linejoin:miter;stroke-dasharray:none;stroke-dashoffset:0;stroke-opacity:1;paint-order:normal"
         d="m -356.79514,-263.17756 c -5.26407,8.04009 -3.53282,17.88877 -1.7417,20.04426 1.15479,0.66588 3.28185,0.0625 4.40803,-0.45595 1.1201,-0.82848 -0.3947,-1.52867 -0.78872,-2.49681 -1.40756,-6.07462 0.49853,-8.81585 3.4047,-13.74156"
         id="path19" /><path
         style="display:inline;fill:#ffffff;fill-opacity:1;stroke:#000000;stroke-width:1;stroke-linecap:round;stroke-linejoin:miter;stroke-dasharray:none;stroke-dashoffset:0;stroke-opacity:1;paint-order:normal"
         d="m -342.55822,-260.85842 c 2.24726,2.48188 4.8435,9.56845 4.95601,12.66929 -0.0918,2.54688 -0.19339,1.66291 -1.06253,4.03479 0.90389,1.7514 2.84193,1.38799 4.37354,0.91907 1.6148,-2.393 2.31392,-14.15357 -4.40138,-20.65097"
         id="path23" /><path
         style="display:inline;fill:#ffffff;fill-opacity:1;stroke:#000000;stroke-width:1;stroke-linecap:round;stroke-linejoin:miter;stroke-dasharray:none;stroke-dashoffset:0;stroke-opacity:1;paint-order:normal"
         d="m -343.46036,-263.37058 c 4.23595,1.57827 5.77906,8.05346 3.23307,9.82556 -1.75288,-1.37546 -3.15554,-5.61838 -3.15554,-5.61838 0,0 -0.99759,3.56719 -2.62356,4.85386 -0.10402,-1.57535 0.15577,-6.07405 0.15577,-6.07405 0,0 0.18505,5.12829 -2.79265,6.41633 0.47156,-1.48744 1.24678,-3.50418 0.33973,-5.24053 -0.0842,1.07989 0.0388,1.68851 -0.5818,2.39763 -0.50359,0.95599 -1.43889,1.16326 -2.38623,1.6215 -0.69186,0.39019 -0.94657,2.43738 -1.88223,1.57066 -1.26227,-3.19675 1.25039,-8.56943 1.96309,-9.36621"
         id="path24" /></g><path
       transform="matrix(-0.9060235,0,0,1.0023804,-660.39769,1.1018251)"
       id="path1"
       d="m -355.12454,-215.27945 c -0.29803,1.50596 0.4549,4.7873 1.32414,7.80808 0.9534,3.31327 2.04673,6.31309 2.04673,6.31309 0,0 -3.78792,1.57784 -3.1431,2.96089 1.14323,2.45208 6.95499,1.1049 8.15383,0.0456 0.0688,-0.0608 1.0165,-4.79389 1.79378,-9.20236 0.63372,-3.59431 1.15417,-6.97282 0.99265,-7.42735 -0.53539,-1.50665 -10.81423,-2.28573 -11.16803,-0.49795 z"
       style="fill:#ffffff;stroke:#000000;stroke-width:1.04933;stroke-dasharray:none;stroke-opacity:1" /><path
       transform="rotate(-90,-349.02054,-235.71743)"
       id="path2"
       d="m -360.00486,-228.24451 -6.41662,6.40556 c 0,0 -1.77466,-0.42771 -2.83718,0.2531 -2.01075,1.28837 -0.78372,6.21081 0.92495,7.87918 1.2968,1.2662 3.76463,-1.78625 3.76463,-1.78625 0,0 1.42599,2.33319 2.27856,1.8442 0.78012,-0.44744 0.24205,-4.72827 0.24205,-4.72827 l 5.58103,-6.06324 c 0,0 6.38183,-6.49195 4.66272,-8.35776 -1.80142,-1.95513 -8.20014,4.55348 -8.20014,4.55348 z"
       style="fill:#ffffff;fill-opacity:1;stroke:#000000;stroke-width:1;stroke-dasharray:none;stroke-opacity:1" /></g></svg>
