<?xml version="1.0" encoding="UTF-8" standalone="no"?>
<!-- Created with Inkscape (http://www.inkscape.org/) -->

<svg
   width="42.18285"
   height="77.839355"
   viewBox="0 0 11.160879 20.594996"
   version="1.1"
   id="svg1"
   xml:space="preserve"
   xmlns="http://www.w3.org/2000/svg"
   xmlns:svg="http://www.w3.org/2000/svg"><defs
     id="defs1" /><g
     id="Hime"
     transform="translate(359.81554,216.25029)"
     style="display:inline"><path
       style="fill:#ffffff;stroke:#000000;stroke-width:1.04933;stroke-dasharray:none;stroke-opacity:1"
       d="m -355.12454,-215.27945 c -0.29803,1.50596 0.4549,4.7873 1.32414,7.80808 0.9534,3.31327 2.04673,6.31309 2.04673,6.31309 0,0 -3.78792,1.57784 -3.1431,2.96089 1.14323,2.45208 6.95499,1.1049 8.15383,0.0456 0.0688,-0.0608 1.0165,-4.79389 1.79378,-9.20236 0.63372,-3.59431 1.15417,-6.97282 0.99265,-7.42735 -0.53539,-1.50665 -10.81423,-2.28573 -11.16803,-0.49795 z"
       id="path9"
       transform="matrix(0.9060235,0,0,1.0023804,-37.524653,1.1018251)" /><path
       transform="matrix(-0.9060235,0,0,1.0023804,-660.39769,1.1018251)"
       id="path1"
       d="m -355.12454,-215.27945 c -0.29803,1.50596 0.4549,4.7873 1.32414,7.80808 0.9534,3.31327 2.04673,6.31309 2.04673,6.31309 0,0 -3.78792,1.57784 -3.1431,2.96089 1.14323,2.45208 6.95499,1.1049 8.15383,0.0456 0.0688,-0.0608 1.0165,-4.79389 1.79378,-9.20236 0.63372,-3.59431 1.15417,-6.97282 0.99265,-7.42735 -0.53539,-1.50665 -10.81423,-2.28573 -11.16803,-0.49795 z"
       style="fill:#ffffff;stroke:#000000;stroke-width:1.04933;stroke-dasharray:none;stroke-opacity:1" /></g></svg>
