<?xml version="1.0" encoding="UTF-8" standalone="no"?>
<!-- Created with Inkscape (http://www.inkscape.org/) -->

<svg
   width="78.455856"
   height="74.798805"
   viewBox="0 0 20.758112 19.790517"
   version="1.1"
   id="svg1"
   xml:space="preserve"
   xmlns="http://www.w3.org/2000/svg"
   xmlns:svg="http://www.w3.org/2000/svg"><defs
     id="defs1" /><g
     id="Hime"
     transform="translate(371.55845,233.72714)"
     style="display:inline"><path
       style="fill:#ffffff;fill-opacity:1;stroke:#000000;stroke-width:1;stroke-dasharray:none;stroke-opacity:1"
       d="m -360.00486,-228.24451 -6.41662,6.40556 c 0,0 -1.77466,-0.42771 -2.83718,0.2531 -2.01075,1.28837 -0.78372,6.21081 0.92495,7.87918 1.2968,1.2662 3.76463,-1.78625 3.76463,-1.78625 0,0 1.42599,2.33319 2.27856,1.8442 0.78012,-0.44744 0.24205,-4.72827 0.24205,-4.72827 l 5.58103,-6.06324 c 0,0 6.38183,-6.49195 4.66272,-8.35776 -1.80142,-1.95513 -8.20014,4.55348 -8.20014,4.55348 z"
       id="path11"
       transform="matrix(0,-1,-1,0,-584.46466,-584.73797)" /><path
       transform="rotate(-90,-349.02054,-235.71743)"
       id="path1"
       d="m -360.00486,-228.24451 -6.41662,6.40556 c 0,0 -1.77466,-0.42771 -2.83718,0.2531 -2.01075,1.28837 -0.78372,6.21081 0.92495,7.87918 1.2968,1.2662 3.76463,-1.78625 3.76463,-1.78625 0,0 1.42599,2.33319 2.27856,1.8442 0.78012,-0.44744 0.24205,-4.72827 0.24205,-4.72827 l 5.58103,-6.06324 c 0,0 6.38183,-6.49195 4.66272,-8.35776 -1.80142,-1.95513 -8.20014,4.55348 -8.20014,4.55348 z"
       style="fill:#ffffff;fill-opacity:1;stroke:#000000;stroke-width:1;stroke-dasharray:none;stroke-opacity:1" /></g></svg>
