<?xml version="1.0" encoding="UTF-8" standalone="no"?>
<!-- Created with Inkscape (http://www.inkscape.org/) -->

<svg
   width="131.16692"
   height="135.10814"
   viewBox="0 0 34.704579 35.747362"
   version="1.1"
   id="svg1"
   xml:space="preserve"
   xmlns="http://www.w3.org/2000/svg"
   xmlns:svg="http://www.w3.org/2000/svg"><defs
     id="defs1" /><g
     id="Hime"
     transform="translate(364.961,268.17877)"
     style="display:inline"><g
       id="g24"
       style="display:inline;fill:#ffffff;fill-opacity:1"><path
         style="display:inline;fill:#ffffff;fill-opacity:1;stroke:#000000;stroke-width:1;stroke-linecap:round;stroke-linejoin:miter;stroke-dasharray:none;stroke-dashoffset:0;stroke-opacity:1;paint-order:normal"
         d="m -355.05366,-257.80031 c -2.43194,9.06483 -4.55743,14.78338 -2.60298,24.05077 -7.14649,-6.01843 -6.86534,-12.77563 -6.77536,-21.37288 0.96764,-7.99271 9.178,-13.76927 16.79273,-11.81943 7.17242,-3.28029 17.36899,4.96574 16.7659,13.93682 0.31903,7.00562 0.5651,17.28677 -7.8249,19.61309 2.10437,-6.90667 2.92923,-13.52356 0.23905,-20.85337 -0.28549,-1.24465 -0.60998,-2.47984 -0.88595,-3.72671"
         id="path18" /><path
         style="display:inline;fill:#ffffff;fill-opacity:1;stroke:#000000;stroke-width:1;stroke-linecap:round;stroke-linejoin:miter;stroke-dasharray:none;stroke-dashoffset:0;stroke-opacity:1;paint-order:normal"
         d="m -356.79514,-263.17756 c -5.26407,8.04009 -3.53282,17.88877 -1.7417,20.04426 1.15479,0.66588 3.28185,0.0625 4.40803,-0.45595 1.1201,-0.82848 -0.3947,-1.52867 -0.78872,-2.49681 -1.40756,-6.07462 0.49853,-8.81585 3.4047,-13.74156"
         id="path19" /><path
         style="display:inline;fill:#ffffff;fill-opacity:1;stroke:#000000;stroke-width:1;stroke-linecap:round;stroke-linejoin:miter;stroke-dasharray:none;stroke-dashoffset:0;stroke-opacity:1;paint-order:normal"
         d="m -342.55822,-260.85842 c 2.24726,2.48188 4.8435,9.56845 4.95601,12.66929 -0.0918,2.54688 -0.19339,1.66291 -1.06253,4.03479 0.90389,1.7514 2.84193,1.38799 4.37354,0.91907 1.6148,-2.393 2.31392,-14.15357 -4.40138,-20.65097"
         id="path23" /><path
         style="display:inline;fill:#ffffff;fill-opacity:1;stroke:#000000;stroke-width:1;stroke-linecap:round;stroke-linejoin:miter;stroke-dasharray:none;stroke-dashoffset:0;stroke-opacity:1;paint-order:normal"
         d="m -343.46036,-263.37058 c 4.23595,1.57827 5.77906,8.05346 3.23307,9.82556 -1.75288,-1.37546 -3.15554,-5.61838 -3.15554,-5.61838 0,0 -0.99759,3.56719 -2.62356,4.85386 -0.10402,-1.57535 0.15577,-6.07405 0.15577,-6.07405 0,0 0.18505,5.12829 -2.79265,6.41633 0.47156,-1.48744 1.24678,-3.50418 0.33973,-5.24053 -0.0842,1.07989 0.0388,1.68851 -0.5818,2.39763 -0.50359,0.95599 -1.43889,1.16326 -2.38623,1.6215 -0.69186,0.39019 -0.94657,2.43738 -1.88223,1.57066 -1.26227,-3.19675 1.25039,-8.56943 1.96309,-9.36621"
         id="path24" /></g></g></svg>
