<?xml version="1.0" encoding="UTF-8" standalone="no"?>
<!-- Created with Inkscape (http://www.inkscape.org/) -->

<svg
   width="58.653194"
   height="41.431194"
   viewBox="0 0 15.518657 10.962003"
   version="1.1"
   id="svg1"
   xml:space="preserve"
   xmlns="http://www.w3.org/2000/svg"
   xmlns:svg="http://www.w3.org/2000/svg"><defs
     id="defs1" /><g
     id="Hime"
     transform="translate(354.01048,263.87058)"
     style="display:inline"><g
       id="g24"
       style="display:inline;fill:#ffffff;fill-opacity:1"><path
         style="display:inline;fill:#ffffff;fill-opacity:1;stroke:#000000;stroke-width:1;stroke-linecap:round;stroke-linejoin:miter;stroke-dasharray:none;stroke-dashoffset:0;stroke-opacity:1;paint-order:normal"
         d="m -343.46036,-263.37058 c 4.23595,1.57827 5.77906,8.05346 3.23307,9.82556 -1.75288,-1.37546 -3.15554,-5.61838 -3.15554,-5.61838 0,0 -0.99759,3.56719 -2.62356,4.85386 -0.10402,-1.57535 0.15577,-6.07405 0.15577,-6.07405 0,0 0.18505,5.12829 -2.79265,6.41633 0.47156,-1.48744 1.24678,-3.50418 0.33973,-5.24053 -0.0842,1.07989 0.0388,1.68851 -0.5818,2.39763 -0.50359,0.95599 -1.43889,1.16326 -2.38623,1.6215 -0.69186,0.39019 -0.94657,2.43738 -1.88223,1.57066 -1.26227,-3.19675 1.25039,-8.56943 1.96309,-9.36621"
         id="path24" /></g></g></svg>
